{
    "asset" : {
        "generator" : "Khronos glTF Blender I/O v3.2.40",
        "version" : "2.0"
    },
    "scene" : 0,
    "scenes" : [
        {
            "name" : "Scene",
            "nodes" : [
                1
            ]
        }
    ],
    "nodes" : [
        {
            "mesh" : 0,
            "name" : "node_id240",
            "scale" : [
                0.005879623349756002,
                0.005879623349756002,
                0.005879623349756002
            ],
            "translation" : [
                -0.11081156879663467,
                -0.014842678792774677,
                0.5125012397766113
            ]
        },
        {
            "children" : [
                0
            ],
            "name" : "root"
        }
    ],
    "materials" : [
        {
            "alphaCutoff" : 0.5,
            "alphaMode" : "MASK",
            "doubleSided" : true,
            "name" : "151",
            "pbrMetallicRoughness" : {}
        }
    ],
    "meshes" : [
        {
            "name" : "mesh_id241",
            "primitives" : [
                {
                    "attributes" : {
                        "POSITION" : 0,
                        "NORMAL" : 1,
                        "TEXCOORD_0" : 2
                    },
                    "indices" : 3,
                    "material" : 0
                }
            ]
        }
    ],
    "accessors" : [
        {
            "bufferView" : 0,
            "componentType" : 5126,
            "count" : 9194,
            "max" : [
                24.65135955810547,
                21.6895809173584,
                40.212520599365234
            ],
            "min" : [
                -24.693462371826172,
                -0.030597910284996033,
                -31.96734619140625
            ],
            "type" : "VEC3"
        },
        {
            "bufferView" : 1,
            "componentType" : 5126,
            "count" : 9194,
            "type" : "VEC3"
        },
        {
            "bufferView" : 2,
            "componentType" : 5126,
            "count" : 9194,
            "type" : "VEC2"
        },
        {
            "bufferView" : 3,
            "componentType" : 5123,
            "count" : 29994,
            "type" : "SCALAR"
        }
    ],
    "bufferViews" : [
        {
            "buffer" : 0,
            "byteLength" : 110328,
            "byteOffset" : 0
        },
        {
            "buffer" : 0,
            "byteLength" : 110328,
            "byteOffset" : 110328
        },
        {
            "buffer" : 0,
            "byteLength" : 73552,
            "byteOffset" : 220656
        },
        {
            "buffer" : 0,
            "byteLength" : 59988,
            "byteOffset" : 294208
        }
    ],
    "buffers" : [
        {
            "byteLength" : 354196,
            "uri" : "data:application/octet-stream;base64,"
        }
    ]
}
